<?xml version="1.0" standalone="no"?>
<!DOCTYPE svg PUBLIC "-//W3C//DTD SVG 20010904//EN"
 "http://www.w3.org/TR/2001/REC-SVG-20010904/DTD/svg10.dtd">
<svg version="1.0" xmlns="http://www.w3.org/2000/svg"
 width="800.000000pt" height="800.000000pt" viewBox="0 0 800.000000 800.000000"
 preserveAspectRatio="xMidYMid meet">
<metadata>
Created by potrace 1.11, written by Peter Selinger 2001-2013
</metadata>
<g transform="translate(0.000000,800.000000) scale(0.100000,-0.100000)"
fill="#000000" stroke="none">
<path d="M7320 6685 c-1 -16 -2 -1237 -3 -2713 -1 -1782 1 -2682 8 -2683 6 -1
86 -2 178 -3 142 -1 170 1 176 14 3 8 5 425 4 925 -1 501 -3 922 -3 938 0 15
0 70 0 122 0 52 0 106 0 120 0 14 0 68 0 120 0 52 0 106 0 120 0 14 0 68 0
120 0 52 0 106 0 120 0 14 0 68 0 120 0 52 0 106 0 120 0 14 0 68 0 120 0 52
0 106 0 120 0 14 0 68 0 120 0 52 0 106 0 120 0 14 0 68 0 120 0 52 0 106 0
120 0 14 0 68 0 120 0 52 0 106 0 120 0 14 0 68 0 120 0 52 0 105 0 118 0 12
1 54 3 92 1 39 -1 75 -6 82 -4 6 -4 13 0 16 4 3 7 49 5 104 -1 54 -2 104 -2
111 0 6 0 59 0 117 0 58 0 112 0 120 0 8 0 62 0 120 0 58 0 112 0 120 0 8 0
62 0 120 0 58 0 111 0 118 0 6 1 65 2 130 2 66 0 124 -4 130 -5 8 -61 12 -183
12 l-175 0 0 -30z"/>
<path d="M1844 6055 c-7 -11 -25 -54 -40 -95 -14 -41 -31 -81 -36 -87 -6 -7
-8 -13 -4 -13 3 0 -5 -25 -19 -56 -14 -31 -25 -61 -25 -66 0 -6 -6 -24 -14
-41 -17 -40 -28 -69 -31 -83 -2 -6 -10 -27 -18 -45 -8 -19 -38 -97 -67 -174
-29 -77 -61 -159 -71 -182 -10 -24 -19 -48 -19 -55 -1 -7 -9 -31 -20 -53 -11
-22 -19 -43 -20 -47 0 -6 -59 -163 -95 -253 -4 -11 -9 -24 -11 -30 -2 -11
-120 -321 -159 -420 -23 -57 -40 -103 -118 -310 -41 -108 -45 -119 -44 -125 0
-3 -6 -16 -13 -30 -8 -14 -15 -34 -17 -44 -2 -11 -7 -24 -12 -30 -7 -9 -30
-69 -36 -96 -1 -3 -7 -18 -14 -35 -7 -16 -46 -120 -87 -230 -42 -110 -80 -209
-84 -220 -19 -44 -211 -547 -214 -560 -2 -5 -8 -21 -13 -35 -6 -14 -45 -117
-87 -230 -42 -113 -81 -214 -86 -225 -9 -20 -50 -127 -50 -133 0 -1 127 -1
281 0 l282 3 25 65 c56 149 73 196 77 210 4 14 108 297 122 330 3 8 7 20 9 25
1 6 49 136 106 290 l103 280 845 0 844 0 79 -195 c43 -107 81 -202 84 -210
132 -327 273 -688 273 -697 0 -7 4 -13 8 -13 4 0 14 -20 21 -45 l13 -45 304 0
304 0 -9 23 c-33 81 -104 257 -116 282 -12 28 -36 87 -182 445 -30 74 -60 146
-66 160 -6 14 -11 27 -12 30 -2 5 -5 12 -48 115 -23 56 -152 372 -202 495 -12
30 -29 71 -37 90 -9 19 -30 71 -47 115 -33 83 -39 97 -64 155 -9 19 -33 80
-55 135 -22 55 -68 168 -102 250 -34 83 -87 211 -117 285 -30 74 -61 149 -68
165 -7 17 -38 91 -68 165 -54 133 -68 166 -92 225 -72 172 -231 564 -234 577
-1 4 -19 46 -41 93 -22 47 -39 88 -39 91 1 2 -11 33 -25 67 l-27 62 -296 0
c-285 0 -296 -1 -309 -20z m334 -417 c1 -18 11 -66 24 -113 6 -22 11 -44 13
-50 1 -5 4 -17 8 -25 3 -8 24 -69 46 -135 57 -168 71 -206 86 -240 8 -16 28
-68 45 -115 17 -47 35 -94 40 -105 5 -11 16 -40 24 -65 8 -25 19 -56 24 -70 6
-14 27 -72 47 -130 20 -58 40 -114 44 -125 4 -11 13 -36 20 -55 29 -85 73
-206 78 -220 4 -8 7 -17 8 -20 1 -3 4 -12 7 -20 4 -8 25 -69 48 -135 24 -66
58 -162 77 -214 19 -51 32 -95 29 -98 -6 -7 -1346 -7 -1352 0 -3 2 56 157 131
343 75 187 138 344 139 349 1 6 10 27 19 49 9 21 17 40 17 43 0 2 11 29 25 59
14 30 25 59 25 64 0 6 4 18 10 28 19 33 137 342 144 377 1 6 12 43 25 83 13
40 24 78 25 85 4 21 27 101 33 117 3 8 7 22 8 30 6 30 14 60 18 68 3 4 8 23
11 42 3 19 8 45 11 58 3 12 7 32 10 45 2 12 8 36 12 52 4 17 6 36 4 43 -1 6 2
12 7 12 5 0 9 -6 10 -12z"/>
<path d="M4488 6070 l-25 -5 0 -2007 0 -2008 241 0 241 0 0 155 c0 85 3 155 6
155 4 0 18 -18 33 -41 42 -63 182 -196 263 -249 40 -27 73 -46 73 -43 0 3 6 0
13 -6 21 -16 144 -61 151 -54 3 4 6 0 6 -7 0 -7 2 -11 5 -8 3 3 34 -1 68 -8
62 -13 343 -13 397 0 14 3 39 9 55 12 42 7 208 64 219 75 6 5 18 9 28 9 10 0
18 5 18 10 0 6 5 10 11 10 14 0 116 62 148 89 13 12 27 21 30 21 10 0 133 122
182 180 95 114 174 258 233 423 19 54 33 97 30 97 -3 0 0 8 5 18 11 20 47 190
55 257 27 221 27 481 1 635 -2 14 -6 41 -9 60 -3 19 -15 82 -26 140 -11 58
-23 119 -26 135 -3 17 -10 45 -16 63 -5 18 -11 39 -12 45 -2 7 -8 25 -14 40
-7 16 -12 31 -12 35 0 14 -69 140 -97 179 -75 104 -250 293 -271 293 -6 0 -12
4 -14 9 -9 23 -193 126 -295 164 -307 116 -644 108 -902 -23 -102 -51 -215
-146 -313 -263 l-23 -28 0 720 c0 635 -2 721 -15 722 -92 3 -422 3 -442 -1z
m1326 -1455 c120 -14 253 -77 360 -170 56 -48 176 -197 176 -218 0 -6 6 -18
14 -26 13 -16 74 -157 81 -190 3 -9 12 -45 21 -81 9 -36 18 -81 21 -100 2 -19
6 -41 9 -49 16 -47 22 -341 10 -476 -8 -89 -43 -272 -60 -320 -43 -114 -73
-182 -92 -211 -13 -19 -20 -34 -16 -34 4 0 2 -4 -4 -8 -6 -4 -24 -27 -41 -52
-66 -97 -228 -229 -313 -255 -3 -1 -17 -7 -32 -13 -101 -42 -300 -50 -418 -17
-163 46 -318 169 -448 355 -55 80 -103 173 -117 230 -34 134 -42 182 -52 330
-12 174 -7 390 12 495 21 118 69 281 93 319 4 6 7 13 8 16 4 26 59 118 113
190 113 152 309 270 474 286 29 3 53 6 54 8 4 3 88 -1 147 -9z"/>
</g>
</svg>
